<?xml version="1.0" encoding="UTF-8"?><svg xmlns="http://www.w3.org/2000/svg" xmlns:xlink="http://www.w3.org/1999/xlink" version="1.1" id="Layer_1" x="0px" y="0px" viewBox="0 0 29 29" xml:space="preserve"><style type="text/css">.st0{fill:none;stroke:#000000;stroke-width:2;stroke-miterlimit:10;} .st1{fill:none;stroke:#000000;stroke-width:2;stroke-linecap:round;stroke-linejoin:round;stroke-miterlimit:10;} .st2{fill:none;stroke:#000000;stroke-miterlimit:10;} .st3{fill:none;stroke:#000000;stroke-width:2;stroke-miterlimit:10;stroke-dasharray:1.7411,1.7411;} .st4{fill:none;stroke:#000000;stroke-width:2;stroke-linecap:round;stroke-linejoin:round;stroke-dasharray:2.0261,4.0522;}</style><path d="M21 8.496a6.507 6.507 0 0 0-7.806-6.373c-2.581.502-4.639 2.612-5.092 5.202a6.497 6.497 0 0 0 2.895 6.641v9.538a.5.5 0 0 0 .146.353l3 3a.5.5 0 0 0 .707 0l2.793-2.793a.5.5 0 0 0 0-.707L15.187 20.9a.5.5 0 0 1 0-.707l2.457-2.457a.5.5 0 0 0 0-.707l-1.487-1.488a.495.495 0 0 1 .212-.826A6.494 6.494 0 0 0 21 8.496zm-6.5-.5a2 2 0 1 1-.001-3.999 2 2 0 0 1 .001 3.999z"/><metadata><rdf:RDF xmlns:rdf="http://www.w3.org/1999/02/22-rdf-syntax-ns#" xmlns:rdfs="http://www.w3.org/2000/01/rdf-schema#" xmlns:dc="http://purl.org/dc/elements/1.1/"><rdf:Description about="https://iconscout.com/legal#licenses" dc:title="accounts,password,key,lock,access,security" dc:description="accounts,password,key,lock,access,security" dc:publisher="Iconscout" dc:date="2017-10-04" dc:format="image/svg+xml" dc:language="en"><dc:creator><rdf:Bag><rdf:li>Jemis Mali</rdf:li></rdf:Bag></dc:creator></rdf:Description></rdf:RDF></metadata></svg>