<?xml version="1.0" encoding="UTF-8"?><svg xmlns="http://www.w3.org/2000/svg" xmlns:xlink="http://www.w3.org/1999/xlink" version="1.1" id="Layer_1" x="0px" y="0px" viewBox="0 0 29 29" xml:space="preserve"><style type="text/css">.st0{fill:none;stroke:#000000;stroke-width:2;stroke-miterlimit:10;} .st1{fill:none;stroke:#000000;stroke-width:2;stroke-linecap:round;stroke-linejoin:round;stroke-miterlimit:10;} .st2{fill:none;stroke:#000000;stroke-miterlimit:10;} .st3{fill:none;stroke:#000000;stroke-width:2;stroke-miterlimit:10;stroke-dasharray:1.7411,1.7411;} .st4{fill:none;stroke:#000000;stroke-width:2;stroke-linecap:round;stroke-linejoin:round;stroke-dasharray:2.0261,4.0522;}</style><path d="M7.5 9.5a5.5 5.5 0 1 0 0 11 5.5 5.5 0 1 0 0-11zM10 16H8.5v1.5a1 1 0 1 1-2 0V16H5a1 1 0 1 1 0-2h1.5v-1.5a1 1 0 1 1 2 0V14H10a1 1 0 1 1 0 2z"/><path class="st0" fill="none" stroke="#000" stroke-miterlimit="10" stroke-width="2" d="M27 20.5H13"/><path class="st0" fill="none" stroke="#000" stroke-miterlimit="10" stroke-width="2" d="M27 16.5H15"/><path class="st0" fill="none" stroke="#000" stroke-miterlimit="10" stroke-width="2" d="M27 12.5H15"/><path class="st0" fill="none" stroke="#000" stroke-miterlimit="10" stroke-width="2" d="M27 8.5H13"/><metadata><rdf:RDF xmlns:rdf="http://www.w3.org/1999/02/22-rdf-syntax-ns#" xmlns:rdfs="http://www.w3.org/2000/01/rdf-schema#" xmlns:dc="http://purl.org/dc/elements/1.1/"><rdf:Description about="https://iconscout.com/legal#licenses" dc:title="add,playlist,addtoplaylist,ios,x,iphone,ui-" dc:description="add,playlist,addtoplaylist,ios,x,iphone,ui-" dc:publisher="Iconscout" dc:date="2017-10-04" dc:format="image/svg+xml" dc:language="en"><dc:creator><rdf:Bag><rdf:li>Jemis Mali</rdf:li></rdf:Bag></dc:creator></rdf:Description></rdf:RDF></metadata></svg>