<?xml version="1.0" encoding="UTF-8"?><svg xmlns="http://www.w3.org/2000/svg" xmlns:xlink="http://www.w3.org/1999/xlink" version="1.1" id="Layer_1" x="0px" y="0px" viewBox="0 0 29 29" xml:space="preserve"><style type="text/css">.st0{fill:none;stroke:#000000;stroke-width:2;stroke-miterlimit:10;} .st1{fill:none;stroke:#000000;stroke-width:2;stroke-linecap:round;stroke-linejoin:round;stroke-miterlimit:10;} .st2{fill:none;stroke:#000000;stroke-miterlimit:10;} .st3{fill:none;stroke:#000000;stroke-width:2;stroke-miterlimit:10;stroke-dasharray:1.7411,1.7411;} .st4{fill:none;stroke:#000000;stroke-width:2;stroke-linecap:round;stroke-linejoin:round;stroke-dasharray:2.0261,4.0522;}</style><circle cx="14.5" cy="4.684" r="1"/><ellipse transform="matrix(0.7071 -0.7071 0.7071 0.7071 0.9348 18.3615)" cx="22.632" cy="8.052" rx="1" ry="1"/><ellipse transform="matrix(0.7071 -0.7071 0.7071 0.7071 -15.3287 11.625)" cx="6.368" cy="24.316" rx="1" ry="1"/><circle cx="26" cy="16.184" r="1"/><circle cx="3" cy="16.184" r="1"/><ellipse transform="matrix(0.7071 -0.7071 0.7071 0.7071 -10.5652 23.125)" cx="22.632" cy="24.316" rx="1" ry="1"/><ellipse transform="matrix(0.7071 -0.7071 0.7071 0.7071 -3.8287 6.8615)" cx="6.368" cy="8.052" rx="1" ry="1"/><path d="M14.5 7.684a8.5 8.5 0 0 0-8.5 8.5c0 1.987.693 3.804 1.836 5.25l5.957-5.957a.999.999 0 1 1 1.414 1.414L9.25 22.849a8.435 8.435 0 0 0 5.25 1.836 8.5 8.5 0 0 0 0-17.001z"/><metadata><rdf:RDF xmlns:rdf="http://www.w3.org/1999/02/22-rdf-syntax-ns#" xmlns:rdfs="http://www.w3.org/2000/01/rdf-schema#" xmlns:dc="http://purl.org/dc/elements/1.1/"><rdf:Description about="https://iconscout.com/legal#licenses" dc:title="adjustments,knob,regulator" dc:description="adjustments,knob,regulator" dc:publisher="Iconscout" dc:date="2017-10-04" dc:format="image/svg+xml" dc:language="en"><dc:creator><rdf:Bag><rdf:li>Jemis Mali</rdf:li></rdf:Bag></dc:creator></rdf:Description></rdf:RDF></metadata></svg>