<?xml version="1.0" encoding="UTF-8"?><svg xmlns="http://www.w3.org/2000/svg" xmlns:xlink="http://www.w3.org/1999/xlink" version="1.1" id="Layer_1" x="0px" y="0px" viewBox="0 0 29 29" xml:space="preserve"><style type="text/css">.st0{fill:none;stroke:#000000;stroke-width:2;stroke-miterlimit:10;} .st1{fill:none;stroke:#000000;stroke-width:2;stroke-linecap:round;stroke-linejoin:round;stroke-miterlimit:10;} .st2{fill:none;stroke:#000000;stroke-miterlimit:10;} .st3{fill:none;stroke:#000000;stroke-width:2;stroke-miterlimit:10;stroke-dasharray:1.7411,1.7411;} .st4{fill:none;stroke:#000000;stroke-width:2;stroke-linecap:round;stroke-linejoin:round;stroke-dasharray:2.0261,4.0522;}</style><path class="st0" d="M9.197 19.303A7.503 7.503 0 0 1 7 14c0-4.114 3.386-7.5 7.5-7.5S22 9.886 22 14a7.503 7.503 0 0 1-2.197 5.303" fill="none" stroke="#000" stroke-miterlimit="10" stroke-width="2"/><path class="st0" d="M12.025 16.475A3.502 3.502 0 0 1 11 14c0-1.92 1.58-3.5 3.5-3.5S18 12.08 18 14c0 .928-.369 1.819-1.025 2.475" fill="none" stroke="#000" stroke-miterlimit="10" stroke-width="2"/><path class="st0" d="M6.368 22.132A11.504 11.504 0 0 1 3 14C3 7.691 8.191 2.5 14.5 2.5S26 7.691 26 14c0 3.049-1.212 5.976-3.368 8.132" fill="none" stroke="#000" stroke-miterlimit="10" stroke-width="2"/><path d="M14.5 17.308l9.192 9.192H5.308z"/><metadata><rdf:RDF xmlns:rdf="http://www.w3.org/1999/02/22-rdf-syntax-ns#" xmlns:rdfs="http://www.w3.org/2000/01/rdf-schema#" xmlns:dc="http://purl.org/dc/elements/1.1/"><rdf:Description about="https://iconscout.com/legal#licenses" dc:title="air,drop,ios,x,iphone,ui-" dc:description="air,drop,ios,x,iphone,ui-" dc:publisher="Iconscout" dc:date="2017-10-04" dc:format="image/svg+xml" dc:language="en"><dc:creator><rdf:Bag><rdf:li>Jemis Mali</rdf:li></rdf:Bag></dc:creator></rdf:Description></rdf:RDF></metadata></svg>