<?xml version="1.0" encoding="UTF-8"?><svg xmlns="http://www.w3.org/2000/svg" xmlns:xlink="http://www.w3.org/1999/xlink" version="1.1" id="Layer_1" x="0px" y="0px" viewBox="0 0 29 29" xml:space="preserve"><style type="text/css">.st0{fill:none;stroke:#000000;stroke-width:2;stroke-miterlimit:10;} .st1{fill:none;stroke:#000000;stroke-width:2;stroke-linecap:round;stroke-linejoin:round;stroke-miterlimit:10;} .st2{fill:none;stroke:#000000;stroke-miterlimit:10;} .st3{fill:none;stroke:#000000;stroke-width:2;stroke-miterlimit:10;stroke-dasharray:1.7411,1.7411;} .st4{fill:none;stroke:#000000;stroke-width:2;stroke-linecap:round;stroke-linejoin:round;stroke-dasharray:2.0261,4.0522;}</style><path d="M22.598 22.184A10.46 10.46 0 0 0 25 15.5C25 9.701 20.299 5 14.5 5S4 9.701 4 15.5c0 2.539.902 4.868 2.402 6.684l-2.109 2.109a.999.999 0 1 0 1.414 1.414l2.109-2.109C9.632 25.098 11.961 26 14.5 26s4.868-.902 6.684-2.402l2.109 2.109a.997.997 0 0 0 1.414 0 .999.999 0 0 0 0-1.414l-2.109-2.109zM15.5 16.5H8v-2h5.5V7h2v9.5z"/><path d="M9.408 4.092A4.457 4.457 0 0 0 6.5 3 4.5 4.5 0 0 0 2 7.5c0 1.115.42 2.122 1.092 2.908a12.528 12.528 0 0 1 6.316-6.316z"/><path d="M25.908 10.408A4.457 4.457 0 0 0 27 7.5 4.5 4.5 0 0 0 22.5 3c-1.115 0-2.122.42-2.908 1.092a12.528 12.528 0 0 1 6.316 6.316z"/><metadata><rdf:RDF xmlns:rdf="http://www.w3.org/1999/02/22-rdf-syntax-ns#" xmlns:rdfs="http://www.w3.org/2000/01/rdf-schema#" xmlns:dc="http://purl.org/dc/elements/1.1/"><rdf:Description about="https://iconscout.com/legal#licenses" dc:title="alarm,clock,time,schedule,management" dc:description="alarm,clock,time,schedule,management" dc:publisher="Iconscout" dc:date="2017-10-04" dc:format="image/svg+xml" dc:language="en"><dc:creator><rdf:Bag><rdf:li>Jemis Mali</rdf:li></rdf:Bag></dc:creator></rdf:Description></rdf:RDF></metadata></svg>