<?xml version="1.0" encoding="UTF-8"?><svg xmlns="http://www.w3.org/2000/svg" xmlns:xlink="http://www.w3.org/1999/xlink" version="1.1" id="Layer_1" x="0px" y="0px" viewBox="0 0 29 29" xml:space="preserve"><style type="text/css">.st0{fill:none;stroke:#000000;stroke-width:2;stroke-miterlimit:10;} .st1{fill:none;stroke:#000000;stroke-width:2;stroke-linecap:round;stroke-linejoin:round;stroke-miterlimit:10;} .st2{fill:none;stroke:#000000;stroke-miterlimit:10;} .st3{fill:none;stroke:#000000;stroke-width:2;stroke-miterlimit:10;stroke-dasharray:1.7411,1.7411;} .st4{fill:none;stroke:#000000;stroke-width:2;stroke-linecap:round;stroke-linejoin:round;stroke-dasharray:2.0261,4.0522;}</style><path d="M25.578 9.777h-7.87a.463.463 0 0 1-.44-.319L14.94 2.319a.463.463 0 0 0-.88 0l-2.328 7.138a.463.463 0 0 1-.44.319h-7.87a.463.463 0 0 0-.301.814l6.206 5.32a.463.463 0 0 1 .139.495l-3.257 9.986c-.145.446.388.8.743.493l7.245-6.278a.462.462 0 0 1 .606 0l7.243 6.278c.354.307.888-.047.743-.493l-3.256-9.986a.463.463 0 0 1 .139-.495l6.207-5.32a.462.462 0 0 0-.301-.813z"/><metadata><rdf:RDF xmlns:rdf="http://www.w3.org/1999/02/22-rdf-syntax-ns#" xmlns:rdfs="http://www.w3.org/2000/01/rdf-schema#" xmlns:dc="http://purl.org/dc/elements/1.1/"><rdf:Description about="https://iconscout.com/legal#licenses" dc:title="bookmark,favorite,star,like,rating" dc:description="bookmark,favorite,star,like,rating" dc:publisher="Iconscout" dc:date="2017-10-04" dc:format="image/svg+xml" dc:language="en"><dc:creator><rdf:Bag><rdf:li>Jemis Mali</rdf:li></rdf:Bag></dc:creator></rdf:Description></rdf:RDF></metadata></svg>