<?xml version="1.0" encoding="UTF-8"?><svg xmlns="http://www.w3.org/2000/svg" xmlns:xlink="http://www.w3.org/1999/xlink" version="1.1" id="Layer_1" x="0px" y="0px" viewBox="0 0 29 29" xml:space="preserve"><style type="text/css">.st0{fill:none;stroke:#000000;stroke-width:2;stroke-miterlimit:10;} .st1{fill:none;stroke:#000000;stroke-width:2;stroke-linecap:round;stroke-linejoin:round;stroke-miterlimit:10;} .st2{fill:none;stroke:#000000;stroke-miterlimit:10;} .st3{fill:none;stroke:#000000;stroke-width:2;stroke-miterlimit:10;stroke-dasharray:1.7411,1.7411;} .st4{fill:none;stroke:#000000;stroke-width:2;stroke-linecap:round;stroke-linejoin:round;stroke-dasharray:2.0261,4.0522;}</style><path d="M21 2H8a2 2 0 0 0-2 2v21a2 2 0 0 0 2 2h13a2 2 0 0 0 2-2V4a2 2 0 0 0-2-2zM9.5 17a1.5 1.5 0 1 1-.001 3.001A1.5 1.5 0 0 1 9.5 17zM8 13.5a1.5 1.5 0 1 1 3.001.001A1.5 1.5 0 0 1 8 13.5zM14.5 25h-5a1.5 1.5 0 0 1 0-3h5a1.5 1.5 0 0 1 0 3zm0-5a1.5 1.5 0 1 1 .001-3.001A1.5 1.5 0 0 1 14.5 20zm0-5a1.5 1.5 0 1 1 .001-3.001A1.5 1.5 0 0 1 14.5 15zm5 10a1.5 1.5 0 1 1 .001-3.001A1.5 1.5 0 0 1 19.5 25zm0-5a1.5 1.5 0 1 1 .001-3.001A1.5 1.5 0 0 1 19.5 20zm0-5a1.5 1.5 0 1 1 .001-3.001A1.5 1.5 0 0 1 19.5 15zM21 8a2 2 0 0 1-2 2h-9a2 2 0 0 1-2-2V6a2 2 0 0 1 2-2h9a2 2 0 0 1 2 2v2z"/><metadata><rdf:RDF xmlns:rdf="http://www.w3.org/1999/02/22-rdf-syntax-ns#" xmlns:rdfs="http://www.w3.org/2000/01/rdf-schema#" xmlns:dc="http://purl.org/dc/elements/1.1/"><rdf:Description about="https://iconscout.com/legal#licenses" dc:title="calculator,calc,calculation,operation" dc:description="calculator,calc,calculation,operation" dc:publisher="Iconscout" dc:date="2017-10-04" dc:format="image/svg+xml" dc:language="en"><dc:creator><rdf:Bag><rdf:li>Jemis Mali</rdf:li></rdf:Bag></dc:creator></rdf:Description></rdf:RDF></metadata></svg>