<?xml version="1.0" encoding="UTF-8"?><svg xmlns="http://www.w3.org/2000/svg" xmlns:xlink="http://www.w3.org/1999/xlink" version="1.1" id="Layer_1" x="0px" y="0px" viewBox="0 0 29 29" xml:space="preserve"><style type="text/css">.st0{fill:none;stroke:#000000;stroke-miterlimit:10;} .st1{fill:none;stroke:#000000;stroke-width:2;stroke-miterlimit:10;} .st2{fill:none;stroke:#000000;stroke-width:2;stroke-linecap:round;stroke-linejoin:round;stroke-miterlimit:10;}</style><path class="st1" d="M11.168 4.5h6.664a4 4 0 0 1 3.894 3.084L23 13H6l1.274-5.416A4.001 4.001 0 0 1 11.168 4.5z" fill="none" stroke="#000" stroke-miterlimit="10" stroke-width="2"/><path d="M2 19.5h4v3a2 2 0 1 1-4 0v-3z"/><path d="M23 11.5H6a4 4 0 0 0-4 4v6h25v-6a4 4 0 0 0-4-4zm-17 7a2 2 0 1 1-.001-3.999A2 2 0 0 1 6 18.5zM19 17a1 1 0 0 1-1 1h-7a1 1 0 0 1-1-1v-1a1 1 0 0 1 1-1h7a1 1 0 0 1 1 1v1zm4 1.5a2 2 0 1 1-.001-3.999A2 2 0 0 1 23 18.5z"/><path d="M23 19.5h4v3a2 2 0 1 1-4 0v-3z"/><metadata><rdf:RDF xmlns:rdf="http://www.w3.org/1999/02/22-rdf-syntax-ns#" xmlns:rdfs="http://www.w3.org/2000/01/rdf-schema#" xmlns:dc="http://purl.org/dc/elements/1.1/"><rdf:Description about="https://iconscout.com/legal#licenses" dc:title="driving,dnd,car,vehicle,ios,x,iphone,ui-" dc:description="driving,dnd,car,vehicle,ios,x,iphone,ui-" dc:publisher="Iconscout" dc:date="2017-10-04" dc:format="image/svg+xml" dc:language="en"><dc:creator><rdf:Bag><rdf:li>Jemis Mali</rdf:li></rdf:Bag></dc:creator></rdf:Description></rdf:RDF></metadata></svg>