<?xml version="1.0" encoding="UTF-8"?><svg xmlns="http://www.w3.org/2000/svg" xmlns:xlink="http://www.w3.org/1999/xlink" version="1.1" id="Layer_1" x="0px" y="0px" viewBox="0 0 29 29" xml:space="preserve"><style type="text/css">.st0{fill:none;stroke:#000000;stroke-width:2;stroke-miterlimit:10;} .st1{fill:none;stroke:#000000;stroke-width:2;stroke-linecap:round;stroke-linejoin:round;stroke-miterlimit:10;} .st2{fill:none;stroke:#000000;stroke-miterlimit:10;} .st3{fill:none;stroke:#000000;stroke-width:2;stroke-miterlimit:10;stroke-dasharray:1.7411,1.7411;} .st4{fill:none;stroke:#000000;stroke-width:2;stroke-linecap:round;stroke-linejoin:round;stroke-dasharray:2.0261,4.0522;}</style><path d="M17 20.5H6a2 2 0 0 1-2-2v-8a2 2 0 0 1 2-2h11a2 2 0 0 1 2 2v8a2 2 0 0 1-2 2z"/><path d="M21 12.5v4l2.293 2.293c.63.63 1.707.184 1.707-.707v-7.172c0-.891-1.077-1.337-1.707-.707L21 12.5z"/><path d="M26.5 19.085a.5.5 0 0 1-.5-.5v-8.173a.5.5 0 0 1 1 0v8.173a.5.5 0 0 1-.5.5z"/><path d="M3 11.5v-1a1 1 0 0 0 0 2v-1z"/><g><path d="M17 20.5H6a2 2 0 0 1-2-2v-8a2 2 0 0 1 2-2h11a2 2 0 0 1 2 2v8a2 2 0 0 1-2 2z"/><path d="M21 12.5v4l2.293 2.293c.63.63 1.707.184 1.707-.707v-7.172c0-.891-1.077-1.337-1.707-.707L21 12.5z"/><path d="M26.5 19.085a.5.5 0 0 1-.5-.5v-8.173a.5.5 0 0 1 1 0v8.173a.5.5 0 0 1-.5.5z"/><path d="M3 11.5v-1a1 1 0 0 0 0 2v-1z"/></g><metadata><rdf:RDF xmlns:rdf="http://www.w3.org/1999/02/22-rdf-syntax-ns#" xmlns:rdfs="http://www.w3.org/2000/01/rdf-schema#" xmlns:dc="http://purl.org/dc/elements/1.1/"><rdf:Description about="https://iconscout.com/legal#licenses" dc:title="facetime,ios,x,iphone,ui-" dc:description="facetime,ios,x,iphone,ui-" dc:publisher="Iconscout" dc:date="2017-10-04" dc:format="image/svg+xml" dc:language="en"><dc:creator><rdf:Bag><rdf:li>Jemis Mali</rdf:li></rdf:Bag></dc:creator></rdf:Description></rdf:RDF></metadata></svg>