<?xml version="1.0" encoding="UTF-8"?><svg xmlns="http://www.w3.org/2000/svg" xmlns:xlink="http://www.w3.org/1999/xlink" version="1.1" id="Layer_1" x="0px" y="0px" viewBox="0 0 29 29" xml:space="preserve"><style type="text/css">.st0{fill:none;stroke:#000000;stroke-width:2;stroke-miterlimit:10;} .st1{fill:none;stroke:#000000;stroke-width:2;stroke-linecap:round;stroke-linejoin:round;stroke-miterlimit:10;} .st2{fill:none;stroke:#000000;stroke-miterlimit:10;} .st3{fill:none;stroke:#000000;stroke-width:2;stroke-miterlimit:10;stroke-dasharray:1.7411,1.7411;} .st4{fill:none;stroke:#000000;stroke-width:2;stroke-linecap:round;stroke-linejoin:round;stroke-dasharray:2.0261,4.0522;}</style><path d="M22.961 11.275a8.5 8.5 0 0 1-4.014 6.466c.022.251.053.501.053.759a8.496 8.496 0 0 1-4.5 7.499A8.5 8.5 0 0 0 27 18.5c0-3.056-1.618-5.727-4.039-7.225z"/><path d="M10 18.5c0-.258.031-.508.053-.76a8.5 8.5 0 0 1-4.014-6.466C3.618 12.773 2 15.444 2 18.5a8.5 8.5 0 0 0 12.5 7.499A8.496 8.496 0 0 1 10 18.5z"/><path d="M14.496 11.004l.004-.003.004.003a8.439 8.439 0 0 1 8.457.271c.023-.256.039-.514.039-.775a8.5 8.5 0 0 0-17 0c0 .261.016.519.039.775a8.441 8.441 0 0 1 8.457-.271z"/><path d="M17.966 18.253a8.59 8.59 0 0 0 .995-.528 8.498 8.498 0 0 0-4.461-6.719 8.5 8.5 0 0 0-4.461 6.719c.318.197.651.373.995.528l.037.017a8.402 8.402 0 0 0 2.338.652c.358.047.72.078 1.091.078a8.35 8.35 0 0 0 1.32-.111 8.414 8.414 0 0 0 2.109-.619l.037-.017z"/><metadata><rdf:RDF xmlns:rdf="http://www.w3.org/1999/02/22-rdf-syntax-ns#" xmlns:rdfs="http://www.w3.org/2000/01/rdf-schema#" xmlns:dc="http://purl.org/dc/elements/1.1/"><rdf:Description about="https://iconscout.com/legal#licenses" dc:title="filter,rgb,ios,x,iphone,ui-" dc:description="filter,rgb,ios,x,iphone,ui-" dc:publisher="Iconscout" dc:date="2017-10-04" dc:format="image/svg+xml" dc:language="en"><dc:creator><rdf:Bag><rdf:li>Jemis Mali</rdf:li></rdf:Bag></dc:creator></rdf:Description></rdf:RDF></metadata></svg>