<?xml version="1.0" encoding="UTF-8"?><svg xmlns="http://www.w3.org/2000/svg" xmlns:xlink="http://www.w3.org/1999/xlink" version="1.1" id="Layer_1" x="0px" y="0px" viewBox="0 0 29 29" xml:space="preserve"><style type="text/css">.st0{fill:none;stroke:#000000;stroke-miterlimit:10;} .st1{fill:none;stroke:#000000;stroke-width:2;stroke-miterlimit:10;} .st2{fill:none;stroke:#000000;stroke-width:2;stroke-linecap:round;stroke-linejoin:round;stroke-miterlimit:10;}</style><path d="M25 2H4a2 2 0 0 0-2 2v21a2 2 0 0 0 2 2h21a2 2 0 0 0 2-2V4a2 2 0 0 0-2-2zM14.502 23a1 1 0 1 1 0-2 1 1 0 0 1 0 2zm2.387-8.691a2.965 2.965 0 0 0-1.387 2.521V18a1 1 0 1 1-2 0v-1.17c0-1.722.867-3.297 2.32-4.213.855-.54 1.501-1.687 1.014-3.033a2.386 2.386 0 0 0-1.418-1.418c-1.111-.402-1.942.006-2.34.286a2.51 2.51 0 0 0-1.076 2.048c0 .658.267 1.302.732 1.768a.999.999 0 1 1-1.414 1.414 4.53 4.53 0 0 1-1.318-3.182c0-1.46.721-2.838 1.928-3.685 1.218-.854 2.735-1.047 4.168-.53a4.405 4.405 0 0 1 2.619 2.62c.737 2.037-.015 4.26-1.828 5.404z"/><metadata><rdf:RDF xmlns:rdf="http://www.w3.org/1999/02/22-rdf-syntax-ns#" xmlns:rdfs="http://www.w3.org/2000/01/rdf-schema#" xmlns:dc="http://purl.org/dc/elements/1.1/"><rdf:Description about="https://iconscout.com/legal#licenses" dc:title="help,query,setting" dc:description="help,query,setting" dc:publisher="Iconscout" dc:date="2017-10-04" dc:format="image/svg+xml" dc:language="en"><dc:creator><rdf:Bag><rdf:li>Jemis Mali</rdf:li></rdf:Bag></dc:creator></rdf:Description></rdf:RDF></metadata></svg>