<?xml version="1.0" encoding="UTF-8"?><svg xmlns="http://www.w3.org/2000/svg" xmlns:xlink="http://www.w3.org/1999/xlink" version="1.1" id="Layer_1" x="0px" y="0px" viewBox="0 0 29 29" xml:space="preserve"><style type="text/css">.st0{fill:none;stroke:#000000;stroke-width:2;stroke-miterlimit:10;} .st1{fill:none;stroke:#000000;stroke-width:2;stroke-linecap:round;stroke-linejoin:round;stroke-miterlimit:10;} .st2{fill:none;stroke:#000000;stroke-miterlimit:10;} .st3{fill:none;stroke:#000000;stroke-width:2;stroke-miterlimit:10;stroke-dasharray:1.7411,1.7411;} .st4{fill:none;stroke:#000000;stroke-width:2;stroke-linecap:round;stroke-linejoin:round;stroke-dasharray:2.0261,4.0522;}</style><path d="M22.739 10.406c.138.607.219 1.234.219 1.882 0 .148-.013.293-.021.44A4.492 4.492 0 0 1 25 16.5c0 2.481-2.019 4.5-4.5 4.5h-6c-2.481 0-4.5-2.019-4.5-4.5s2.019-4.5 4.5-4.5h2.436a2.497 2.497 0 0 0-1.494-2H14.5C10.916 10 8 12.916 8 16.5s2.916 6.5 6.5 6.5h6c3.584 0 6.5-2.916 6.5-6.5 0-2.796-1.778-5.179-4.261-6.094z"/><path d="M14.5 6h-6A6.508 6.508 0 0 0 2 12.5c0 2.778 1.755 5.148 4.212 6.076A8.447 8.447 0 0 1 6 16.723c0-.159.014-.315.022-.472A4.498 4.498 0 0 1 4 12.5C4 10.019 6.019 8 8.5 8h6c2.481 0 4.5 2.019 4.5 4.5S16.981 17 14.5 17h-2.478c.1.898.677 1.647 1.472 2H14.5c3.584 0 6.5-2.916 6.5-6.5S18.084 6 14.5 6z"/><metadata><rdf:RDF xmlns:rdf="http://www.w3.org/1999/02/22-rdf-syntax-ns#" xmlns:rdfs="http://www.w3.org/2000/01/rdf-schema#" xmlns:dc="http://purl.org/dc/elements/1.1/"><rdf:Description about="https://iconscout.com/legal#licenses" dc:title="hotspot" dc:description="hotspot" dc:publisher="Iconscout" dc:date="2017-10-04" dc:format="image/svg+xml" dc:language="en"><dc:creator><rdf:Bag><rdf:li>Jemis Mali</rdf:li></rdf:Bag></dc:creator></rdf:Description></rdf:RDF></metadata></svg>