<?xml version="1.0" encoding="UTF-8"?><svg xmlns="http://www.w3.org/2000/svg" xmlns:xlink="http://www.w3.org/1999/xlink" version="1.1" id="Layer_1" x="0px" y="0px" viewBox="0 0 29 29" xml:space="preserve"><style type="text/css">.st0{fill:none;stroke:#000000;stroke-miterlimit:10;} .st1{fill:none;stroke:#000000;stroke-width:2;stroke-miterlimit:10;} .st2{fill:none;stroke:#000000;stroke-width:2;stroke-linecap:round;stroke-linejoin:round;stroke-miterlimit:10;}</style><path d="M23.651 13.135c.005-.101.015-.2.015-.301a6.667 6.667 0 0 0-6.667-6.667 6.66 6.66 0 0 0-5.936 3.643A4.126 4.126 0 0 0 9.5 9.5c-2.115 0-3.843 1.581-4.112 3.622C3.422 13.796 2 15.639 2 17.833a5 5 0 0 0 5 5h15a5 5 0 0 0 5-5c0-2.179-1.403-4.014-3.349-4.698z"/><metadata><rdf:RDF xmlns:rdf="http://www.w3.org/1999/02/22-rdf-syntax-ns#" xmlns:rdfs="http://www.w3.org/2000/01/rdf-schema#" xmlns:dc="http://purl.org/dc/elements/1.1/"><rdf:Description about="https://iconscout.com/legal#licenses" dc:title="icloud,cloud,computing,data,storage" dc:description="icloud,cloud,computing,data,storage" dc:publisher="Iconscout" dc:date="2017-10-04" dc:format="image/svg+xml" dc:language="en"><dc:creator><rdf:Bag><rdf:li>Jemis Mali</rdf:li></rdf:Bag></dc:creator></rdf:Description></rdf:RDF></metadata></svg>