<?xml version="1.0" encoding="UTF-8"?><svg xmlns="http://www.w3.org/2000/svg" xmlns:xlink="http://www.w3.org/1999/xlink" version="1.1" id="Layer_1" x="0px" y="0px" viewBox="0 0 29 29" xml:space="preserve"><style type="text/css">.st0{fill:none;stroke:#000000;stroke-miterlimit:10;} .st1{fill:none;stroke:#000000;stroke-width:2;stroke-miterlimit:10;} .st2{fill:none;stroke:#000000;stroke-width:2;stroke-linecap:round;stroke-linejoin:round;stroke-miterlimit:10;}</style><path class="st2" fill="none" stroke="#000" stroke-linecap="round" stroke-linejoin="round" stroke-miterlimit="10" stroke-width="2" d="M18.5 22l-4 4-4-4"/><path class="st2" fill="none" stroke="#000" stroke-linecap="round" stroke-linejoin="round" stroke-miterlimit="10" stroke-width="2" d="M14.5 25.125V14"/><path class="st1" d="M17.5 18h3.75a4.5 4.5 0 0 0 4.5-4.5c0-1.961-1.263-3.613-3.014-4.229.004-.09.014-.179.014-.271a6 6 0 0 0-6-6 5.993 5.993 0 0 0-5.342 3.279A3.729 3.729 0 0 0 10 6C8.097 6 6.542 7.423 6.299 9.26 4.53 9.866 3.25 11.525 3.25 13.5a4.5 4.5 0 0 0 4.5 4.5h3.75" fill="none" stroke="#000" stroke-miterlimit="10" stroke-width="2"/><metadata><rdf:RDF xmlns:rdf="http://www.w3.org/1999/02/22-rdf-syntax-ns#" xmlns:rdfs="http://www.w3.org/2000/01/rdf-schema#" xmlns:dc="http://purl.org/dc/elements/1.1/"><rdf:Description about="https://iconscout.com/legal#licenses" dc:title="icloud,data,download" dc:description="icloud,data,download" dc:publisher="Iconscout" dc:date="2017-10-04" dc:format="image/svg+xml" dc:language="en"><dc:creator><rdf:Bag><rdf:li>Jemis Mali</rdf:li></rdf:Bag></dc:creator></rdf:Description></rdf:RDF></metadata></svg>