<?xml version="1.0" encoding="UTF-8"?><svg xmlns="http://www.w3.org/2000/svg" xmlns:xlink="http://www.w3.org/1999/xlink" version="1.1" id="Layer_1" x="0px" y="0px" viewBox="0 0 29 29" xml:space="preserve"><style type="text/css">.st0{fill:none;stroke:#000000;stroke-width:2;stroke-miterlimit:10;} .st1{fill:none;stroke:#000000;stroke-width:2;stroke-linecap:round;stroke-linejoin:round;stroke-miterlimit:10;} .st2{fill:none;stroke:#000000;stroke-miterlimit:10;} .st3{fill:none;stroke:#000000;stroke-width:2;stroke-miterlimit:10;stroke-dasharray:1.7411,1.7411;} .st4{fill:none;stroke:#000000;stroke-width:2;stroke-linecap:round;stroke-linejoin:round;stroke-dasharray:2.0261,4.0522;}</style><path d="M20.914 17.743l-2.091 1.178a1.319 1.319 0 0 1-1.58-.217l-6.979-6.979a1.32 1.32 0 0 1-.217-1.58l1.178-2.091a1.978 1.978 0 0 0-.325-2.37L7.766 2.55a1.978 1.978 0 0 0-2.798 0L3.545 3.972a5.276 5.276 0 0 0-.793 6.446l.714 1.19a41.36 41.36 0 0 0 14.946 14.631l.141.081c2.102 1.201 4.699.851 6.382-.831l1.486-1.486a1.978 1.978 0 0 0 0-2.798l-3.136-3.136a1.978 1.978 0 0 0-2.371-.326z"/><path class="st0" fill="none" stroke="#000" stroke-miterlimit="10" stroke-width="2" d="M16.518 12.482l6-6"/><path class="st0" fill="none" stroke="#000" stroke-miterlimit="10" stroke-width="2" d="M20.518 12.982h-4.5v-4.5"/><metadata><rdf:RDF xmlns:rdf="http://www.w3.org/1999/02/22-rdf-syntax-ns#" xmlns:rdfs="http://www.w3.org/2000/01/rdf-schema#" xmlns:dc="http://purl.org/dc/elements/1.1/"><rdf:Description about="https://iconscout.com/legal#licenses" dc:title="incoming,call,receive,phone" dc:description="incoming,call,receive,phone" dc:publisher="Iconscout" dc:date="2017-10-04" dc:format="image/svg+xml" dc:language="en"><dc:creator><rdf:Bag><rdf:li>Jemis Mali</rdf:li></rdf:Bag></dc:creator></rdf:Description></rdf:RDF></metadata></svg>