<?xml version="1.0" encoding="UTF-8"?><svg xmlns="http://www.w3.org/2000/svg" xmlns:xlink="http://www.w3.org/1999/xlink" version="1.1" id="Layer_1" x="0px" y="0px" viewBox="0 0 29 29" xml:space="preserve"><style type="text/css">.st0{fill:none;stroke:#000000;stroke-miterlimit:10;} .st1{fill:none;stroke:#000000;stroke-width:2;stroke-miterlimit:10;} .st2{fill:none;stroke:#000000;stroke-width:2;stroke-linecap:round;stroke-linejoin:round;stroke-miterlimit:10;}</style><path d="M26.49 2.51s-8.979-.021-15.979 6.979a7.72 7.72 0 0 0-.86 1.037c-1.241-.099-3.143-.063-4.113.909-2.27 2.27-3.027 6.054-3.027 6.054l5.294-.756v1.462l3 3h1.462l-.757 5.295s3.784-.757 6.054-3.027c.971-.971 1.007-2.872.909-4.113a7.645 7.645 0 0 0 1.037-.86c7-7 6.98-15.98 6.98-15.98zm-9.98 7.98a2 2 0 1 1 3.999-.001 2 2 0 0 1-3.999.001z"/><path d="M8.558 22.206c-.919.919-2.084.316-2.084.316s-.568-1.2.316-2.084c.076-.076.169-.119.258-.171l-.615-.615c-.321.11-.624.284-.88.54-.898.898-.846 4.097-.846 4.097s3.2.051 4.097-.846c.256-.256.43-.559.54-.88l-.614-.614c-.053.088-.096.181-.172.257z"/><metadata><rdf:RDF xmlns:rdf="http://www.w3.org/1999/02/22-rdf-syntax-ns#" xmlns:rdfs="http://www.w3.org/2000/01/rdf-schema#" xmlns:dc="http://purl.org/dc/elements/1.1/"><rdf:Description about="https://iconscout.com/legal#licenses" dc:title="launch,rocket" dc:description="launch,rocket" dc:publisher="Iconscout" dc:date="2017-10-04" dc:format="image/svg+xml" dc:language="en"><dc:creator><rdf:Bag><rdf:li>Jemis Mali</rdf:li></rdf:Bag></dc:creator></rdf:Description></rdf:RDF></metadata></svg>