<?xml version="1.0" encoding="UTF-8"?><svg xmlns="http://www.w3.org/2000/svg" xmlns:xlink="http://www.w3.org/1999/xlink" version="1.1" id="Layer_1" x="0px" y="0px" viewBox="0 0 29 29" xml:space="preserve"><style type="text/css">.st0{fill:none;stroke:#000000;stroke-width:2;stroke-miterlimit:10;} .st1{fill:none;stroke:#000000;stroke-width:2;stroke-linecap:round;stroke-linejoin:round;stroke-miterlimit:10;} .st2{fill:none;stroke:#000000;stroke-miterlimit:10;} .st3{fill:none;stroke:#000000;stroke-width:2;stroke-miterlimit:10;stroke-dasharray:1.7411,1.7411;} .st4{fill:none;stroke:#000000;stroke-width:2;stroke-linecap:round;stroke-linejoin:round;stroke-dasharray:2.0261,4.0522;}</style><path d="M25.022 19.609l-2.18-1.109-7.435 3.78c-.57.29-1.243.29-1.813 0L6.159 18.5l-2.18 1.109a1 1 0 0 0 0 1.783l9.615 4.889c.57.29 1.243.29 1.813 0l9.615-4.889a1 1 0 0 0 0-1.783z"/><path d="M25.022 13.609l-2.18-1.109-7.435 3.78c-.57.29-1.243.29-1.813 0L6.159 12.5l-2.18 1.109a1 1 0 0 0 0 1.783l9.615 4.889c.57.29 1.243.29 1.813 0l9.615-4.889a1 1 0 0 0 0-1.783z"/><path d="M13.594 2.72L3.978 7.609a1 1 0 0 0 0 1.783l9.615 4.889c.57.29 1.243.29 1.813 0l9.615-4.889a1 1 0 0 0 0-1.783L15.406 2.72a1.996 1.996 0 0 0-1.812 0z"/><metadata><rdf:RDF xmlns:rdf="http://www.w3.org/1999/02/22-rdf-syntax-ns#" xmlns:rdfs="http://www.w3.org/2000/01/rdf-schema#" xmlns:dc="http://purl.org/dc/elements/1.1/"><rdf:Description about="https://iconscout.com/legal#licenses" dc:title="layer,stack" dc:description="layer,stack" dc:publisher="Iconscout" dc:date="2017-10-04" dc:format="image/svg+xml" dc:language="en"><dc:creator><rdf:Bag><rdf:li>Jemis Mali</rdf:li></rdf:Bag></dc:creator></rdf:Description></rdf:RDF></metadata></svg>