<?xml version="1.0" encoding="UTF-8"?><svg xmlns="http://www.w3.org/2000/svg" xmlns:xlink="http://www.w3.org/1999/xlink" version="1.1" id="Layer_1" x="0px" y="0px" viewBox="0 0 29 29" xml:space="preserve"><style type="text/css">.st0{fill:none;stroke:#000000;stroke-width:2;stroke-miterlimit:10;} .st1{fill:none;stroke:#000000;stroke-width:2;stroke-linecap:round;stroke-linejoin:round;stroke-miterlimit:10;} .st2{fill:none;stroke:#000000;stroke-miterlimit:10;} .st3{fill:none;stroke:#000000;stroke-width:2;stroke-miterlimit:10;stroke-dasharray:1.7411,1.7411;} .st4{fill:none;stroke:#000000;stroke-width:2;stroke-linecap:round;stroke-linejoin:round;stroke-dasharray:2.0261,4.0522;}</style><path class="st0" d="M23.305 20.25a11.513 11.513 0 0 1-9.96 5.75c-6.309 0-11.5-5.191-11.5-11.5S7.037 3 13.345 3s11.5 5.191 11.5 11.5" fill="none" stroke="#000" stroke-miterlimit="10" stroke-width="2"/><path class="st0" d="M13.345 9a2.5 2.5 0 0 1 2.5 2.5V15h-5v-3.5a2.5 2.5 0 0 1 2.5-2.5z" fill="none" stroke="#000" stroke-miterlimit="10" stroke-width="2"/><path d="M17.845 21h-9a1 1 0 0 1-1-1v-4a2 2 0 0 1 2-2h7a2 2 0 0 1 2 2v4a1 1 0 0 1-1 1z"/><path d="M26.775 14a.38.38 0 0 1 .326.573l-1.929 3.241a.38.38 0 0 1-.652 0l-1.929-3.241a.379.379 0 0 1 .325-.573h3.859z"/><metadata><rdf:RDF xmlns:rdf="http://www.w3.org/1999/02/22-rdf-syntax-ns#" xmlns:rdfs="http://www.w3.org/2000/01/rdf-schema#" xmlns:dc="http://purl.org/dc/elements/1.1/"><rdf:Description about="https://iconscout.com/legal#licenses" dc:title="lock,phone,secure" dc:description="lock,phone,secure" dc:publisher="Iconscout" dc:date="2017-10-04" dc:format="image/svg+xml" dc:language="en"><dc:creator><rdf:Bag><rdf:li>Jemis Mali</rdf:li></rdf:Bag></dc:creator></rdf:Description></rdf:RDF></metadata></svg>