<?xml version="1.0" encoding="UTF-8"?><svg xmlns="http://www.w3.org/2000/svg" xmlns:xlink="http://www.w3.org/1999/xlink" version="1.1" id="Layer_1" x="0px" y="0px" viewBox="0 0 29 29" xml:space="preserve"><style type="text/css">.st0{fill:none;stroke:#000000;stroke-width:2;stroke-miterlimit:10;} .st1{fill:none;stroke:#000000;stroke-width:2;stroke-linecap:round;stroke-linejoin:round;stroke-miterlimit:10;} .st2{fill:none;stroke:#000000;stroke-miterlimit:10;} .st3{fill:none;stroke:#000000;stroke-width:2;stroke-miterlimit:10;stroke-dasharray:1.7411,1.7411;} .st4{fill:none;stroke:#000000;stroke-width:2;stroke-linecap:round;stroke-linejoin:round;stroke-dasharray:2.0261,4.0522;}</style><path class="st2" d="M4.25 9h17a2 2 0 0 1 2 2v7a2 2 0 0 1-2 2h-17a2 2 0 0 1-2-2v-7a2 2 0 0 1 2-2z" fill="none" stroke="#000" stroke-miterlimit="10"/><path d="M4.75 10.5h13v8h-13a1 1 0 0 1-1-1v-6a1 1 0 0 1 1-1z"/><path d="M24.75 12.05v4.899a2.5 2.5 0 0 0 0-4.899z"/><g><path class="st2" d="M4.25 9h17a2 2 0 0 1 2 2v7a2 2 0 0 1-2 2h-17a2 2 0 0 1-2-2v-7a2 2 0 0 1 2-2z" fill="none" stroke="#000" stroke-miterlimit="10"/><path d="M4.75 10.5h13v8h-13a1 1 0 0 1-1-1v-6a1 1 0 0 1 1-1z"/><path d="M24.75 12.05v4.899a2.5 2.5 0 0 0 0-4.899z"/></g><metadata><rdf:RDF xmlns:rdf="http://www.w3.org/1999/02/22-rdf-syntax-ns#" xmlns:rdfs="http://www.w3.org/2000/01/rdf-schema#" xmlns:dc="http://purl.org/dc/elements/1.1/"><rdf:Description about="https://iconscout.com/legal#licenses" dc:title="battery,charge,charging" dc:description="battery,charge,charging" dc:publisher="Iconscout" dc:date="2017-10-04" dc:format="image/svg+xml" dc:language="en"><dc:creator><rdf:Bag><rdf:li>Jemis Mali</rdf:li></rdf:Bag></dc:creator></rdf:Description></rdf:RDF></metadata></svg>