<?xml version="1.0" encoding="UTF-8"?><svg xmlns="http://www.w3.org/2000/svg" xmlns:xlink="http://www.w3.org/1999/xlink" version="1.1" id="Layer_1" x="0px" y="0px" viewBox="0 0 29 29" xml:space="preserve"><style type="text/css">.st0{fill:none;stroke:#000000;stroke-width:2;stroke-miterlimit:10;} .st1{fill:none;stroke:#000000;stroke-width:2;stroke-linecap:round;stroke-linejoin:round;stroke-miterlimit:10;} .st2{fill:none;stroke:#000000;stroke-miterlimit:10;} .st3{fill:none;stroke:#000000;stroke-width:2;stroke-miterlimit:10;stroke-dasharray:1.7411,1.7411;} .st4{fill:none;stroke:#000000;stroke-width:2;stroke-linecap:round;stroke-linejoin:round;stroke-dasharray:2.0261,4.0522;}</style><path d="M14.5 2C7.596 2 2 7.596 2 14.5S7.596 27 14.5 27 27 21.404 27 14.5 21.404 2 14.5 2zm7.826 15.668h-2.63c-.527 0-.989-.351-1.131-.858l-.383-1.371a.783.783 0 0 0-.754-.572h-5.856a.784.784 0 0 0-.754.572l-.383 1.371a1.175 1.175 0 0 1-1.131.858h-2.63A1.174 1.174 0 0 1 5.5 16.494v-1.247c0-1.412.943-2.648 2.329-3.026l.093-.025a24.543 24.543 0 0 1 12.409-.132l.798.2a3.13 3.13 0 0 1 2.371 3.037v1.193c0 .649-.526 1.174-1.174 1.174z"/><metadata><rdf:RDF xmlns:rdf="http://www.w3.org/1999/02/22-rdf-syntax-ns#" xmlns:rdfs="http://www.w3.org/2000/01/rdf-schema#" xmlns:dc="http://purl.org/dc/elements/1.1/"><rdf:Description about="https://iconscout.com/legal#licenses" dc:title="missed,call,off,phone" dc:description="missed,call,off,phone" dc:publisher="Iconscout" dc:date="2017-10-04" dc:format="image/svg+xml" dc:language="en"><dc:creator><rdf:Bag><rdf:li>Jemis Mali</rdf:li></rdf:Bag></dc:creator></rdf:Description></rdf:RDF></metadata></svg>