<?xml version="1.0" encoding="UTF-8"?><svg xmlns="http://www.w3.org/2000/svg" xmlns:xlink="http://www.w3.org/1999/xlink" version="1.1" id="Layer_1" x="0px" y="0px" viewBox="0 0 29 29" xml:space="preserve"><style type="text/css">.st0{fill:none;stroke:#000000;stroke-width:2;stroke-miterlimit:10;} .st1{fill:none;stroke:#000000;stroke-width:2;stroke-linecap:round;stroke-linejoin:round;stroke-miterlimit:10;} .st2{fill:none;stroke:#000000;stroke-miterlimit:10;} .st3{fill:none;stroke:#000000;stroke-width:2;stroke-miterlimit:10;stroke-dasharray:1.7411,1.7411;} .st4{fill:none;stroke:#000000;stroke-width:2;stroke-linecap:round;stroke-linejoin:round;stroke-dasharray:2.0261,4.0522;}</style><path d="M11.429 2.829a2 2 0 0 0-1.883 1.997V20.94H6.029c-1.657 0-3.237 1.343-3.529 3-.292 1.657.814 3 2.471 3h3c1.657 0 3.237-1.343 3.529-3 .03-.17.036-.335.038-.498l.009-.002V9.866a1 1 0 0 1 .923-.997l11-.846a1 1 0 0 1 1.077.997v8.92h-3.518c-1.657 0-3.237 1.343-3.529 3-.292 1.657.814 3 2.471 3h3c1.657 0 3.237-1.343 3.529-3 .03-.17.036-.335.038-.498l.009-.002V4.061a2 2 0 0 0-2.117-1.997l-13.001.765z"/><metadata><rdf:RDF xmlns:rdf="http://www.w3.org/1999/02/22-rdf-syntax-ns#" xmlns:rdfs="http://www.w3.org/2000/01/rdf-schema#" xmlns:dc="http://purl.org/dc/elements/1.1/"><rdf:Description about="https://iconscout.com/legal#licenses" dc:title="music,audio,tune,lyrics,browse" dc:description="music,audio,tune,lyrics,browse" dc:publisher="Iconscout" dc:date="2017-10-04" dc:format="image/svg+xml" dc:language="en"><dc:creator><rdf:Bag><rdf:li>Jemis Mali</rdf:li></rdf:Bag></dc:creator></rdf:Description></rdf:RDF></metadata></svg>