<?xml version="1.0" encoding="UTF-8"?><svg xmlns="http://www.w3.org/2000/svg" xmlns:xlink="http://www.w3.org/1999/xlink" version="1.1" id="Layer_1" x="0px" y="0px" viewBox="0 0 29 29" xml:space="preserve"><style type="text/css">.st0{fill:none;stroke:#000000;stroke-width:2;stroke-miterlimit:10;} .st1{fill:none;stroke:#000000;stroke-width:2;stroke-linecap:round;stroke-linejoin:round;stroke-miterlimit:10;} .st2{fill:none;stroke:#000000;stroke-miterlimit:10;} .st3{fill:none;stroke:#000000;stroke-width:2;stroke-miterlimit:10;stroke-dasharray:1.7411,1.7411;} .st4{fill:none;stroke:#000000;stroke-width:2;stroke-linecap:round;stroke-linejoin:round;stroke-dasharray:2.0261,4.0522;}</style><path transform="matrix(0.7071 -0.7071 0.7071 0.7071 -4.5125 13.8813)" d="M13.5.898h1.999v22.98H13.5z"/><path d="M10.271 12.401V13.5a3.5 3.5 0 0 0 3.5 3.5c.332 0 .647-.061.951-.147l-4.451-4.452z"/><path d="M17.271 10.917V5.5a3.498 3.498 0 1 0-6.738-1.322l6.738 6.739z"/><g><path d="M14.771 20.925a7.466 7.466 0 0 0 2.954-1.069l-1.46-1.461a5.458 5.458 0 0 1-2.494.605 5.507 5.507 0 0 1-5.5-5.5v-3.1L7.87 10h-1.6v3.5c0 3.796 2.837 6.934 6.5 7.425V25h-3.5v2h9v-2h-3.5v-4.075z"/><path d="M21.154 14.801c.074-.423.117-.857.117-1.301V10h-2v2.917l1.883 1.884z"/></g><metadata><rdf:RDF xmlns:rdf="http://www.w3.org/1999/02/22-rdf-syntax-ns#" xmlns:rdfs="http://www.w3.org/2000/01/rdf-schema#" xmlns:dc="http://purl.org/dc/elements/1.1/"><rdf:Description about="https://iconscout.com/legal#licenses" dc:title="mute,mic,microphone,audio,record" dc:description="mute,mic,microphone,audio,record" dc:publisher="Iconscout" dc:date="2017-10-04" dc:format="image/svg+xml" dc:language="en"><dc:creator><rdf:Bag><rdf:li>Jemis Mali</rdf:li></rdf:Bag></dc:creator></rdf:Description></rdf:RDF></metadata></svg>