<?xml version="1.0" encoding="UTF-8"?><svg xmlns="http://www.w3.org/2000/svg" xmlns:xlink="http://www.w3.org/1999/xlink" version="1.1" id="Layer_1" x="0px" y="0px" viewBox="0 0 29 29" xml:space="preserve"><style type="text/css">.st0{fill:none;stroke:#000000;stroke-width:2;stroke-miterlimit:10;} .st1{fill:none;stroke:#000000;stroke-width:2;stroke-linecap:round;stroke-linejoin:round;stroke-miterlimit:10;} .st2{fill:none;stroke:#000000;stroke-miterlimit:10;} .st3{fill:none;stroke:#000000;stroke-width:2;stroke-miterlimit:10;stroke-dasharray:1.7411,1.7411;} .st4{fill:none;stroke:#000000;stroke-width:2;stroke-linecap:round;stroke-linejoin:round;stroke-dasharray:2.0261,4.0522;}</style><path transform="matrix(0.7071 -0.7071 0.7071 0.7071 -6.0061 14.5)" d="M13.5 1.065h2v26.87h-2z"/><path d="M21.05 16.809l1.067-1.778c.8-1.333-.16-3.029-1.715-3.029h-4.16l4.808 4.807z"/><path d="M7.604 11.848l-.688 1.072c-.856 1.331.1 3.082 1.682 3.082h3.16l-4.154-4.154z"/><path d="M13.7 9.457l1.828-6.093a1.058 1.058 0 0 0-1.904-.876l-2.698 4.196L13.7 9.457z"/><path d="M15.049 19.284l-1.742 6.387c-.183.67.324 1.33 1.018 1.328h.028c.368-.001.709-.195.898-.51l2.626-4.376-2.828-2.829z"/><metadata><rdf:RDF xmlns:rdf="http://www.w3.org/1999/02/22-rdf-syntax-ns#" xmlns:rdfs="http://www.w3.org/2000/01/rdf-schema#" xmlns:dc="http://purl.org/dc/elements/1.1/"><rdf:Description about="https://iconscout.com/legal#licenses" dc:title="no,flash,light,ios,x,iphone,ui-" dc:description="no,flash,light,ios,x,iphone,ui-" dc:publisher="Iconscout" dc:date="2017-10-04" dc:format="image/svg+xml" dc:language="en"><dc:creator><rdf:Bag><rdf:li>Jemis Mali</rdf:li></rdf:Bag></dc:creator></rdf:Description></rdf:RDF></metadata></svg>