<?xml version="1.0" encoding="UTF-8"?><svg xmlns="http://www.w3.org/2000/svg" xmlns:xlink="http://www.w3.org/1999/xlink" version="1.1" id="Layer_1" x="0px" y="0px" viewBox="0 0 29 29" xml:space="preserve"><style type="text/css">.st0{fill:none;stroke:#000000;stroke-miterlimit:10;} .st1{fill:none;stroke:#000000;stroke-width:2;stroke-miterlimit:10;} .st2{fill:none;stroke:#000000;stroke-width:2;stroke-linecap:round;stroke-linejoin:round;stroke-miterlimit:10;}</style><path d="M21.495 13.163v10.342a1 1 0 0 1-1 1h-15a1 1 0 0 1-1-1v-12h7.343l6.001-6H5.495c-1.654 0-3 1.346-3 3v15c0 1.654 1.346 3 3 3h15c1.654 0 3-1.346 3-3V11.162l-2 2.001z"/><path d="M24.505 7.323l1.414-1.414a2 2 0 1 0-2.828-2.828l-1.414 1.414 2.828 2.828z"/><path d="M20.262 5.909l-7.07 7.071-.708 3.536 3.536-.708 7.071-7.07z"/><metadata><rdf:RDF xmlns:rdf="http://www.w3.org/1999/02/22-rdf-syntax-ns#" xmlns:rdfs="http://www.w3.org/2000/01/rdf-schema#" xmlns:dc="http://purl.org/dc/elements/1.1/"><rdf:Description about="https://iconscout.com/legal#licenses" dc:title="notes,ios,x,iphone,ui-" dc:description="notes,ios,x,iphone,ui-" dc:publisher="Iconscout" dc:date="2017-10-04" dc:format="image/svg+xml" dc:language="en"><dc:creator><rdf:Bag><rdf:li>Jemis Mali</rdf:li></rdf:Bag></dc:creator></rdf:Description></rdf:RDF></metadata></svg>