<?xml version="1.0" encoding="UTF-8"?><svg xmlns="http://www.w3.org/2000/svg" xmlns:xlink="http://www.w3.org/1999/xlink" version="1.1" id="Layer_1" x="0px" y="0px" viewBox="0 0 29 29" xml:space="preserve"><style type="text/css">.st0{fill:none;stroke:#000000;stroke-width:2;stroke-miterlimit:10;} .st1{fill:none;stroke:#000000;stroke-width:2;stroke-linecap:round;stroke-linejoin:round;stroke-miterlimit:10;} .st2{fill:none;stroke:#000000;stroke-miterlimit:10;} .st3{fill:none;stroke:#000000;stroke-width:2;stroke-miterlimit:10;stroke-dasharray:1.7411,1.7411;} .st4{fill:none;stroke:#000000;stroke-width:2;stroke-linecap:round;stroke-linejoin:round;stroke-dasharray:2.0261,4.0522;}</style><path d="M5.661 23.339c4.882 4.882 12.796 4.882 17.678 0 4.882-4.882 4.882-12.796 0-17.678s-12.796-4.882-17.678 0C.78 10.543.78 18.457 5.661 23.339zm5.545-16.613l1.86 1.86c.372.372.451.947.193 1.406l-.699 1.241a.781.781 0 0 0 .129.937l4.141 4.141a.781.781 0 0 0 .937.128l1.241-.699a1.173 1.173 0 0 1 1.406.193l1.861 1.861a1.175 1.175 0 0 1 0 1.66l-.881.881a3.135 3.135 0 0 1-3.786.493l-.084-.048a24.54 24.54 0 0 1-8.868-8.681l-.423-.706a3.128 3.128 0 0 1 .469-3.823l.844-.844a1.173 1.173 0 0 1 1.66 0z"/><metadata><rdf:RDF xmlns:rdf="http://www.w3.org/1999/02/22-rdf-syntax-ns#" xmlns:rdfs="http://www.w3.org/2000/01/rdf-schema#" xmlns:dc="http://purl.org/dc/elements/1.1/"><rdf:Description about="https://iconscout.com/legal#licenses" dc:title="call,receive,phone,attend" dc:description="call,receive,phone,attend" dc:publisher="Iconscout" dc:date="2017-10-04" dc:format="image/svg+xml" dc:language="en"><dc:creator><rdf:Bag><rdf:li>Jemis Mali</rdf:li></rdf:Bag></dc:creator></rdf:Description></rdf:RDF></metadata></svg>