<?xml version="1.0" encoding="UTF-8"?><svg xmlns="http://www.w3.org/2000/svg" xmlns:xlink="http://www.w3.org/1999/xlink" version="1.1" id="Layer_1" x="0px" y="0px" viewBox="0 0 29 29" xml:space="preserve"><style type="text/css">.st0{fill:none;stroke:#000000;stroke-miterlimit:10;} .st1{fill:none;stroke:#000000;stroke-width:2;stroke-miterlimit:10;} .st2{fill:none;stroke:#000000;stroke-width:2;stroke-linecap:round;stroke-linejoin:round;stroke-miterlimit:10;}</style><path d="M22 5H7V4a1 1 0 0 1 1-1h13a1 1 0 0 1 1 1v1z"/><path d="M22 13H7a.5.5 0 0 0-.5.5V25a1 1 0 0 0 1 1h14a1 1 0 0 0 1-1V13.5a.5.5 0 0 0-.5-.5zm-1.5 11h-12V14h12v10z"/><path d="M26 7H3a1 1 0 0 0-1 1v11a1 1 0 0 0 1 1h5.5v-6h12v6H26a1 1 0 0 0 1-1V8a1 1 0 0 0-1-1z"/><metadata><rdf:RDF xmlns:rdf="http://www.w3.org/1999/02/22-rdf-syntax-ns#" xmlns:rdfs="http://www.w3.org/2000/01/rdf-schema#" xmlns:dc="http://purl.org/dc/elements/1.1/"><rdf:Description about="https://iconscout.com/legal#licenses" dc:title="printer,fax,print,device" dc:description="printer,fax,print,device" dc:publisher="Iconscout" dc:date="2017-10-04" dc:format="image/svg+xml" dc:language="en"><dc:creator><rdf:Bag><rdf:li>Jemis Mali</rdf:li></rdf:Bag></dc:creator></rdf:Description></rdf:RDF></metadata></svg>