<?xml version="1.0" encoding="UTF-8"?><svg xmlns="http://www.w3.org/2000/svg" xmlns:xlink="http://www.w3.org/1999/xlink" version="1.1" id="Layer_1" x="0px" y="0px" viewBox="0 0 29 29" xml:space="preserve"><style type="text/css">.st0{fill:none;stroke:#000000;stroke-width:2;stroke-miterlimit:10;} .st1{fill:none;stroke:#000000;stroke-width:2;stroke-linecap:round;stroke-linejoin:round;stroke-miterlimit:10;} .st2{fill:none;stroke:#000000;stroke-miterlimit:10;} .st3{fill:none;stroke:#000000;stroke-width:2;stroke-miterlimit:10;stroke-dasharray:1.7411,1.7411;} .st4{fill:none;stroke:#000000;stroke-width:2;stroke-linecap:round;stroke-linejoin:round;stroke-dasharray:2.0261,4.0522;}</style><path class="st0" d="M17 5.5v18a2.5 2.5 0 1 1-5 0v-18a2.5 2.5 0 1 1 5 0z" fill="none" stroke="#000" stroke-miterlimit="10" stroke-width="2"/><path class="st0" d="M23.5 17h-18a2.5 2.5 0 1 1 0-5h18a2.5 2.5 0 1 1 0 5z" fill="none" stroke="#000" stroke-miterlimit="10" stroke-width="2"/><path class="st0" d="M22.632 9.904L9.904 22.632a2.501 2.501 0 0 1-3.536-3.536L19.096 6.368a2.501 2.501 0 0 1 3.536 3.536z" fill="none" stroke="#000" stroke-miterlimit="10" stroke-width="2"/><path class="st0" d="M19.096 22.632L6.368 9.904a2.501 2.501 0 0 1 3.536-3.536l12.728 12.728a2.501 2.501 0 0 1-3.536 3.536z" fill="none" stroke="#000" stroke-miterlimit="10" stroke-width="2"/><metadata><rdf:RDF xmlns:rdf="http://www.w3.org/1999/02/22-rdf-syntax-ns#" xmlns:rdfs="http://www.w3.org/2000/01/rdf-schema#" xmlns:dc="http://purl.org/dc/elements/1.1/"><rdf:Description about="https://iconscout.com/legal#licenses" dc:title="wallpaper,ios,x,iphone,ui-" dc:description="wallpaper,ios,x,iphone,ui-" dc:publisher="Iconscout" dc:date="2017-10-04" dc:format="image/svg+xml" dc:language="en"><dc:creator><rdf:Bag><rdf:li>Jemis Mali</rdf:li></rdf:Bag></dc:creator></rdf:Description></rdf:RDF></metadata></svg>