<?xml version="1.0" encoding="UTF-8"?><svg xmlns="http://www.w3.org/2000/svg" xmlns:xlink="http://www.w3.org/1999/xlink" version="1.1" id="Layer_1" x="0px" y="0px" viewBox="0 0 29 29" xml:space="preserve"><style type="text/css">.st0{fill:none;stroke:#000000;stroke-miterlimit:10;} .st1{fill:none;stroke:#000000;stroke-width:2;stroke-miterlimit:10;} .st2{fill:none;stroke:#000000;stroke-width:2;stroke-linecap:round;stroke-linejoin:round;stroke-miterlimit:10;}</style><path class="st1" d="M11.672 19.086a4.001 4.001 0 0 1-1.172-2.828c0-2.194 1.806-4 4-4s4 1.806 4 4a4 4 0 0 1-1.172 2.828" fill="none" stroke="#000" stroke-miterlimit="10" stroke-width="2"/><path class="st1" d="M8.843 21.914A8.002 8.002 0 0 1 6.5 16.257c0-4.389 3.611-8 8-8s8 3.611 8 8a8.002 8.002 0 0 1-2.343 5.657" fill="none" stroke="#000" stroke-miterlimit="10" stroke-width="2"/><path class="st1" d="M6.015 24.743A12.003 12.003 0 0 1 2.5 16.258c0-6.583 5.417-12 12-12s12 5.417 12 12c0 3.181-1.265 6.236-3.515 8.485" fill="none" stroke="#000" stroke-miterlimit="10" stroke-width="2"/><circle cx="14.5" cy="16.257" r="1"/><metadata><rdf:RDF xmlns:rdf="http://www.w3.org/1999/02/22-rdf-syntax-ns#" xmlns:rdfs="http://www.w3.org/2000/01/rdf-schema#" xmlns:dc="http://purl.org/dc/elements/1.1/"><rdf:Description about="https://iconscout.com/legal#licenses" dc:title="wifi,internet,signal,network" dc:description="wifi,internet,signal,network" dc:publisher="Iconscout" dc:date="2017-10-04" dc:format="image/svg+xml" dc:language="en"><dc:creator><rdf:Bag><rdf:li>Jemis Mali</rdf:li></rdf:Bag></dc:creator></rdf:Description></rdf:RDF></metadata></svg>